<svg width="894" height="160" viewBox="0 0 894 160" fill="none" xmlns="http://www.w3.org/2000/svg">
<path d="M734 153.424C738.992 150.789 742.528 148.779 744.608 147.392C746.688 146.005 748.56 144.064 750.224 141.568C751.888 138.933 752.72 135.675 752.72 131.792V27.792C752.72 23.9093 751.888 20.6507 750.224 18.016C748.699 15.3813 746.827 13.3707 744.608 11.984C742.528 10.4587 739.061 8.37868 734.208 5.744V2H768.736L858.384 114.736V27.792C858.384 23.7707 857.483 20.512 855.68 18.016C853.877 15.3813 851.659 13.3707 849.024 11.984C846.528 10.5973 843.061 9.00268 838.624 7.20001C836.544 6.50668 835.227 6.02134 834.672 5.744V2H893.12V5.744C888.267 8.37868 884.8 10.3893 882.72 11.776C880.64 13.024 878.768 14.9653 877.104 17.6C875.44 20.096 874.608 23.216 874.608 26.96V158.208H866.08L769.152 36.112V130.96C769.152 134.981 769.984 138.309 771.648 140.944C773.312 143.44 775.392 145.451 777.888 146.976C780.384 148.363 783.781 149.888 788.08 151.552L792.656 153.424V157.168H734V153.424Z" fill="black"/>
<path d="M580.43 153.294C585.006 151.075 588.403 149.273 590.622 147.886C592.979 146.361 594.99 144.35 596.654 141.854C598.318 139.358 599.15 136.169 599.15 132.286V27.0381C599.15 23.1555 598.318 19.9661 596.654 17.4701C594.99 14.8355 593.118 12.8941 591.038 11.6461C588.958 10.2595 585.422 8.31813 580.43 5.82213V2.07812H640.958C655.379 2.07812 667.79 5.1288 678.19 11.2301C688.728 17.1928 693.998 26.8995 693.998 40.3501C693.998 49.3635 690.808 57.4061 684.43 64.4781C678.19 71.5501 670.494 76.6808 661.342 79.8701L695.87 130.414C702.526 139.705 710.984 147.331 721.246 153.294V157.038H696.494C690.67 157.038 686.163 154.611 682.974 149.758L641.998 86.1101H620.158V132.494C620.158 137.486 621.406 141.299 623.902 143.934C626.398 146.43 630.35 149.134 635.758 152.046L638.046 153.294V157.038H580.43V153.294ZM620.158 73.2141H636.798C642.899 73.2141 648.584 72.0355 653.854 69.6781C659.123 67.3208 663.352 63.9235 666.542 59.4861C669.731 54.9101 671.326 49.5021 671.326 43.2621C671.326 33.8328 667.79 26.7608 660.718 22.0461C653.784 17.3315 645.395 14.9741 635.55 14.9741H620.158V73.2141Z" fill="black"/>
<path d="M488.185 159.329C468.494 159.329 453.379 153.921 442.84 143.105C432.302 132.15 427.033 116.828 427.033 97.1371V28.0811C427.033 23.9211 426.2 20.5237 424.536 17.8891C423.011 15.2544 421 13.1744 418.504 11.6491C416.147 10.1237 412.75 8.25172 408.312 6.03306V2.28906H466.969V6.03306C460.59 8.94506 455.875 11.9264 452.824 14.9771C449.774 17.8891 448.249 22.2571 448.249 28.0811V93.6011C448.249 128.406 463.502 145.809 494.008 145.809C506.904 145.809 516.542 141.788 522.921 133.745C529.438 125.564 532.697 114.886 532.697 101.713V29.1211C532.697 24.4064 531.587 20.6624 529.368 17.8891C527.288 14.9771 524.723 12.8277 521.673 11.4411C518.761 9.91573 514.531 8.11306 508.984 6.03306V2.28906H567.432V6.03306L564.105 7.69706C561.193 9.22239 558.835 10.6091 557.033 11.8571C555.23 13.1051 553.635 14.7691 552.249 16.8491C550.168 20.1771 549.129 23.9211 549.129 28.0811V97.1371C549.129 116.828 543.859 132.15 533.321 143.105C522.921 153.921 507.875 159.329 488.185 159.329Z" fill="black"/>
<path d="M292.32 155.216C298.283 152.997 302.651 151.264 305.424 150.016C308.197 148.629 310.624 146.549 312.704 143.776C314.923 140.864 316.032 137.12 316.032 132.544V16.896H290.24C286.357 16.896 282.891 17.936 279.84 20.016C276.789 21.9573 274.363 24.7307 272.56 28.336L261.744 51.424H258V4H395.072V51.424H391.328L380.72 28.336C379.195 24.8693 376.768 22.096 373.44 20.016C370.251 17.936 366.715 16.896 362.832 16.896H337.04V132.544C337.04 137.12 338.08 140.864 340.16 143.776C342.379 146.549 344.805 148.629 347.44 150.016C350.213 151.264 354.581 152.997 360.544 155.216V158.96H292.32V155.216Z" fill="black"/>
<path d="M110.578 153.295C115.015 150.938 119.106 147.61 122.85 143.311C126.733 139.012 127 138.5 131.794 129.791L205.666 1.03906H227.066L237.148 111.623C238.171 122.846 240.233 134.397 247.634 142.895V142.895C249.517 147.194 253.954 150.66 258.946 153.295V157.039H205.706V153.295C209.727 151.77 210.35 150.943 212.156 148.539C214.034 146.039 214.034 142.838 214.034 138.539C214.034 135.488 214.034 128.539 214.034 123.539C214.034 119.039 214.034 117.539 214.034 111.539V101.711H158.834L156.13 108.367C150.583 120.708 147.81 129.098 147.81 133.535C147.81 137.972 148.989 141.924 151.346 145.391C153.842 148.858 157.101 151.492 161.122 153.295V157.039H110.578V153.295ZM214.034 88.8151L210.656 7.53906L165.242 88.8151H214.034Z" fill="black"/>
<path d="M47.84 159.328C39.2427 159.328 32.24 158.635 26.832 157.248C21.5627 156 14.2133 153.643 4.784 150.176L0 148.304V110.24H3.744L6.448 115.856C9.49867 122.512 12.064 127.643 14.144 131.248C16.224 134.715 19.0667 137.835 22.672 140.608C26.416 143.381 31.2693 145.531 37.232 147.056C40.8373 147.888 44.3733 148.304 47.84 148.304C56.7147 148.304 63.7867 146.016 69.056 141.44C74.464 136.864 77.168 130.208 77.168 121.472C77.168 114.4 75.6427 108.992 72.592 105.248C69.68 101.504 66.0053 98.3147 61.568 95.68C57.1307 93.0453 51.0987 89.9253 43.472 86.32C34.8747 82.2987 28.0107 78.6933 22.88 75.504C17.7493 72.3147 13.3813 68.0853 9.776 62.816C6.30933 57.408 4.576 50.752 4.576 42.848C4.576 35.36 6.864 28.3573 11.44 21.84C16.1547 15.184 22.1867 9.91468 29.536 6.03201C36.8853 2.01067 44.2347 0 51.584 0C59.3493 0 66.2133 0.901334 72.176 2.704C78.2773 4.36801 85.072 7.21067 92.56 11.232V47.424H88.816C84.9333 38.272 81.6747 31.4773 79.04 27.04C76.544 22.6027 72.9387 18.8587 68.224 15.808C63.5093 12.7573 57.3387 11.232 49.712 11.232C42.7787 11.232 37.0933 13.5893 32.656 18.304C28.2187 22.88 26 28.6347 26 35.568C26 41.2533 27.456 46.176 30.368 50.336C33.28 54.3573 36.8853 57.6853 41.184 60.32C45.4827 62.9547 51.3067 66.0747 58.656 69.68C67.2533 73.84 74.048 77.584 79.04 80.912C84.1707 84.24 88.5387 88.6773 92.144 94.224C95.7493 99.7707 97.552 106.635 97.552 114.816C97.552 123.413 95.1947 131.109 90.48 137.904C85.7653 144.699 79.5947 149.968 71.968 153.712C64.3413 157.456 56.2987 159.328 47.84 159.328Z" fill="black"/>
</svg>
